<svg width="1182" height="448" viewBox="0 0 1182 448" fill="none" xmlns="http://www.w3.org/2000/svg">
<path d="M248.7 404.4H780L778.8 286.2L249.8 357.3L248.7 404.4Z" fill="#561B1C"/>
<path d="M131.2 316.4L73 307V253.7L131.2 257.4V316.4Z" fill="#F0B630"/>
<path d="M131.2 316.4L189.3 307V253.7L131.2 257.4V316.4Z" fill="#FBCC34"/>
<path d="M73 253.7L131.2 257.4L189.3 253.7L129.2 250.8L73 253.7Z" fill="#561B1C"/>
<path d="M20.9 295.5L0 316.1L30.9 312.2L20.9 295.5Z" fill="#561B1C"/>
<path d="M86.1 372.2L20.9 361.7V295.5L86.1 306V372.2Z" fill="#F0B630"/>
<path d="M86.1 372.2L151.4 361.7V295.5L86.1 306V372.2Z" fill="#FBCC34"/>
<path d="M20.9 295.5L86.1 306L151.4 295.5L79.2 287.4L20.9 295.5Z" fill="#561B1C"/>
<path d="M86.1 306L151.4 295.5L160.7 308.6L141.5 326.7L103.5 337.4L86.1 306Z" fill="#F0B630"/>
<path d="M73 253.7L72.5 253L60.1 234.3L118.4 231.8L129.2 250.8" fill="#FBCC34"/>
<path d="M131.2 257.8L136.1 237.2L178.8 237.9V254.6L131.2 257.8Z" fill="#F0B630"/>
<path d="M586.4 229.5C583.4 229.4 580.5 230 577.8 231L575 213.1L548.7 216.6C548.7 216.6 515.4 200.8 514.2 254.6C513 308.4 539.9 307.2 539.9 307.2L581.2 311.3C582.3 311.5 583.4 311.6 584.5 311.6C600.9 312 614.7 293.9 615.2 271.2C615.2 271.1 615.2 271 615.2 271C615.6 248.5 602.8 229.9 586.4 229.5Z" fill="#561B1C"/>
<path d="M314.3 232.1C310.7 232 307.2 232.7 303.8 234L300.4 212.2L268.4 216.5C268.4 216.5 227.9 197.3 226.5 262.7C225.1 328.1 257.8 326.7 257.8 326.7L308.1 331.7C309.4 331.9 310.7 332.1 312.1 332.1C332.1 332.5 348.8 310.5 349.4 282.9C349.4 282.8 349.4 282.7 349.4 282.6C349.9 255.1 334.2 232.6 314.3 232.1Z" fill="#561B1C"/>
<path d="M294.1 324.5L362.3 334.5L756.1 284.7C756.1 284.7 775.5 277.2 775.5 264.8V252.5L756.4 253.8L449.8 275.5L377.7 283.7L256.5 281.2L294.1 324.5Z" fill="#561B1C"/>
<path d="M713.3 311.7L670 307.4C670 307.4 643.9 308.5 645 256.3C646.1 204.1 678.5 219.4 678.5 219.4L704 216L713.7 278.9L713.3 311.7Z" fill="#561B1C"/>
<path d="M469.9 350.5L415.6 345.1C415.6 345.1 382.9 346.5 384.3 281.1C385.7 215.7 426.2 234.9 426.2 234.9L458.2 230.6L470.3 309.3L469.9 350.5Z" fill="#561B1C"/>
<path d="M157.6 287.6V297.5L365.2 320.3L761.8 273.4C761.8 273.4 775.5 268.7 775.5 264.9V252.6L767 247.9V226L749.9 215.6L191.7 253.5L157.6 287.6Z" fill="#561B1C"/>
<path d="M669.4 117L709.2 141.1L732 190.9L760.4 210.8V260.6L672.3 271.1L669.4 117Z" fill="#F0B630"/>
<path d="M166.1 279.6V67.7002L356.6 44.2002V292.7L166.1 279.6Z" fill="#561B1C"/>
<path d="M348.1 53.8V283.5L174.7 271.6V75.2L348.1 53.8ZM365.2 34.5L157.6 60.1V287.6L365.2 301.8V34.5Z" fill="#F0B630"/>
<path d="M365.2 34.5L672.3 74.9V271.1L365.2 301.8V34.5Z" fill="#FBCC34"/>
<path d="M190.1 271.6L85.1 372.9L250.7 404.4L333.7 281.3L190.1 271.6Z" fill="#561B1C"/>
<path d="M190.1 264.4L85.1 365.7L247.9 394.4L332.4 272.7L190.1 264.4Z" fill="#FBCC34"/>
<path d="M85.1 365.7V372.9L250.7 404.4L249.3 394.4L85.1 365.7Z" fill="#561B1C"/>
<path d="M336.7 145.4L184.6 155.4V78.6L336.7 61.5V145.4Z" fill="#F0B630"/>
<path d="M344.8 76.6001C345 78.4001 343.6 80.0001 341.9 80.1001L207.7 92.3001C205.9 92.5001 204.3 91.2002 204.2 89.4002C204 87.6002 205.4 86.0002 207.1 85.9002L341.3 73.6001C343 73.5001 344.6 74.8001 344.8 76.6001Z" fill="#561B1C"/>
<path d="M338.9 88L229.1 98C227.3 98.2 226 99.7 226.2 101.5C226.4 103.3 227.9 104.6 229.7 104.4L338.9 94.4V88Z" fill="#561B1C"/>
<path d="M343.1 104.3L233.3 114.3C231.5 114.5 230.2 116.1 230.4 117.8C230.6 119.6 232.1 120.9 233.9 120.7L343.1 110.7V104.3Z" fill="#561B1C"/>
<path d="M682.2 138.3L702.1 148.3L719.2 185.2L682.2 183.8V138.3Z" fill="#561B1C"/>
<path d="M472.5 240.7C451.1 240.7 429.4 264.8 429.4 294.6L511 286.6C508.2 260.6 492 240.7 472.5 240.7Z" fill="#561B1C" stroke="#561B1C" stroke-width="2.8433" stroke-miterlimit="10"/>
<path d="M713.3 225C695.7 225 681.3 244.7 681.1 269.1L745.1 262.5C742.6 241.3 729.3 225 713.3 225Z" fill="#561B1C" stroke="#561B1C" stroke-width="2.8433" stroke-miterlimit="10"/>
<path d="M763.2 247.8L750 248.7L750.9 267.7L767 266.7V247.8H763.2Z" fill="#561B1C"/>
<path d="M760.9 215.5L753.8 220.3V241.1L763.2 247.8L760.9 215.5Z" fill="#561B1C"/>
<path d="M763.2 226.9C763.2 230.6 762.1 233.5 760.8 233.5C759.5 233.5 758.4 230.5 758.4 226.9C758.4 223.2 759.5 220.3 760.8 220.3C762.2 220.3 763.2 223.3 763.2 226.9Z" fill="#FBCC34"/>
<path d="M719.2 188.8C719.2 193.1 715.7 196.6 711.4 196.6C707.1 196.6 703.6 193.1 703.6 188.8V174.6C703.6 170.3 707.1 166.8 711.4 166.8C715.7 166.8 719.2 170.3 719.2 174.6V188.8Z" fill="#561B1C"/>
<path d="M723.4 188.8C723.4 193.1 719.9 196.6 715.6 196.6C711.3 196.6 707.8 193.1 707.8 188.8V174.6C707.8 170.3 711.3 166.8 715.6 166.8C719.9 166.8 723.4 170.3 723.4 174.6V188.8Z" fill="#F9E4A7"/>
<path d="M381.3 52.5L655.2 84.7V237.3V251.5L529.1 262C529.1 262 510.9 206.5 445.7 226.9C445.7 226.9 497.8 194.2 537.6 243.5L641.9 238.3V104.7L389.8 74.8L381.3 52.5Z" fill="#F9E4A7"/>
<path d="M709.9 217.9C709.9 217.9 738 216.1 745.7 244.9H752.3C752.3 244.9 747.2 210.1 709.9 217.9Z" fill="#F9E4A7"/>
<path d="M643.7 186.3L390.3 183.7L382.2 195.5L644.3 196.3L643.7 186.3Z" fill="#F9E4A7"/>
<path d="M547.1 293.3C547.1 293.3 547.1 270.6 558.5 267.7L632.4 260.6C632.4 260.6 645.2 267 645.2 279.1C645.2 286.2 547.1 293.3 547.1 293.3Z" fill="#561B1C"/>
<path d="M341 220.8L363.7 219.4C363.7 219.4 383.6 223.7 383.6 227.9V307.5" stroke="#561B1C" stroke-width="8.5299" stroke-miterlimit="10"/>
<path d="M342.4 250.6H364.2H382.2" stroke="#561B1C" stroke-width="8.5299" stroke-miterlimit="10"/>
<path d="M332.5 279.5H366.1L383.2 279" stroke="#561B1C" stroke-width="8.5299" stroke-miterlimit="10"/>
<path d="M157.7 228.8L175.6 227.3" stroke="#561B1C" stroke-width="7.1083" stroke-miterlimit="10"/>
<path d="M156.7 248.7H179.4" stroke="#561B1C" stroke-width="7.1083" stroke-miterlimit="10"/>
<path d="M176.6 268.1H156.7" stroke="#561B1C" stroke-width="7.1083" stroke-miterlimit="10"/>
<path d="M118.4 346.6C116.6 345.7 251.3 372.6 251.3 372.6L239 389.5L105.2 356.2L118.4 346.6Z" fill="#FBCC34"/>
<path d="M190.1 264.4L247.9 394.4L85.1 365.7L190.1 264.4Z" fill="#F0B630"/>
<path d="M127.7 351.9L224.6 252.7" stroke="#561B1C" stroke-width="8.2216" stroke-miterlimit="10" stroke-linecap="round" stroke-linejoin="round"/>
<path d="M158.5 359.3L252.7 257.7" stroke="#561B1C" stroke-width="8.2216" stroke-miterlimit="10" stroke-linecap="round" stroke-linejoin="round"/>
<path d="M203.1 366.1L292.1 259.9" stroke="#561B1C" stroke-width="8.2216" stroke-miterlimit="10" stroke-linecap="round" stroke-linejoin="round"/>
<path d="M233.4 372.3L318.5 262.9" stroke="#561B1C" stroke-width="8.2216" stroke-miterlimit="10" stroke-linecap="round" stroke-linejoin="round"/>
<path d="M188 262H332.5L186 165.3L188 262Z" fill="#F0B630"/>
<path d="M338.2 210.8H260V266.2H338.2V210.8Z" fill="#561B1C"/>
<path d="M672.3 133.3L702.2 148.2L711.4 166.7C711.4 166.7 717.1 167.4 717.1 169.5C717.1 171.6 707.2 145.3 707.2 145.3L672.4 124V133.3H672.3Z" fill="#F9E4A7"/>
<path d="M719.9 192.3L752.6 217.2L756.8 214.4L723.4 188.8L719.9 192.3Z" fill="#F9E4A7"/>
<path d="M647.4 86.4002L668 77.2002L651.6 92.8002L647.4 86.4002Z" fill="#F9E4A7"/>
<path d="M472.1 250.6C452.2 250.2 435.5 272 434.8 299.5C434.8 299.6 434.8 299.7 434.8 299.8C434.2 327.4 449.9 350.1 469.9 350.6C489.9 351 506.6 329 507.2 301.4C507.2 301.3 507.2 301.2 507.2 301.1C507.7 273.6 492 251.1 472.1 250.6Z" fill="#FBCC34"/>
<path d="M448.3 300.4C448.8 283.2 459.2 269.4 471.7 269.7C484.2 270 494 284.1 493.7 301.4C493.7 301.5 493.7 301.5 493.7 301.6C493.3 318.9 482.8 332.7 470.3 332.5C457.8 332.2 447.9 318 448.3 300.6C448.3 300.5 448.3 300.4 448.3 300.4Z" fill="#561B1C"/>
<path d="M485.9 301.4C485.9 301.3 485.9 301.3 485.9 301.2C486.2 285.8 478.4 272.9 467.8 270.1C469.1 269.8 470.4 269.7 471.7 269.7C484.2 270 494 284.1 493.7 301.4C493.7 301.5 493.7 301.5 493.7 301.6C493.3 318.9 482.8 332.7 470.3 332.5C469 332.5 467.7 332.3 466.4 331.9C477.1 329.5 485.6 316.9 485.9 301.4Z" fill="#F9E4A7"/>
<path d="M463.4 299.4C463.3 304.9 466.4 309.4 470.4 309.5C474.4 309.6 477.7 305.2 477.8 299.7C477.9 294.2 474.8 289.7 470.8 289.6C466.9 289.5 463.6 293.9 463.4 299.4Z" fill="#F9E4A7"/>
<path d="M715.1 231.9C699.2 231.6 685.9 249 685.3 270.9C685.3 271 685.3 271.1 685.3 271.1C684.8 293.1 697.4 311.3 713.3 311.6C729.3 311.9 742.6 294.4 743.1 272.3C743.1 272.2 743.1 272.1 743.1 272.1C743.5 250.3 731 232.3 715.1 231.9Z" fill="#FBCC34"/>
<path d="M696.1 271.6C696.5 257.8 704.8 246.9 714.8 247.1C724.8 247.3 732.6 258.6 732.4 272.4C732.4 272.5 732.4 272.5 732.4 272.6C732.1 286.4 723.7 297.5 713.7 297.2C703.7 297 695.8 285.6 696.1 271.8C696 271.7 696.1 271.7 696.1 271.6Z" fill="#561B1C"/>
<path d="M726.1 272.5V272.4C726.3 260.1 720.1 249.8 711.6 247.6C712.6 247.4 713.7 247.3 714.7 247.3C724.7 247.5 732.5 258.8 732.3 272.6C732.3 272.7 732.3 272.7 732.3 272.8C732 286.6 723.6 297.7 713.6 297.4C712.5 297.4 711.5 297.2 710.5 297C719.1 294.9 725.8 284.8 726.1 272.5Z" fill="#F9E4A7"/>
<path d="M708.2 270.8C708.1 275.2 710.6 278.8 713.8 278.9C717 279 719.6 275.5 719.7 271.1C719.8 266.7 717.3 263.1 714.1 263C710.9 262.9 708.3 266.4 708.2 270.8Z" fill="#F9E4A7"/>
<path d="M390.8 88.1998L374.7 47.7998V193.8L389.8 170.1L634.3 176.1V111.8L394.6 89.0998L390.8 88.1998Z" fill="#F0B630"/>
<path d="M170.9 72.3999L160.5 63.8999V218.4L170.4 217.4L170.9 72.3999Z" fill="#FBCC34"/>
<path d="M668.7 199.4H719.2V210.1C719.2 210.1 675.8 211.5 672.3 267.7L662.3 266.3L663 204.5L668.7 199.4Z" fill="#FBCC34"/>
<path d="M701.6 213.2C701.6 213.2 736.2 206.6 749.9 228.8V220.7L719.1 199.4L669.8 197.5L669.3 207L666.9 226L701.6 213.2Z" fill="#FBCC34"/>
<path d="M698.6 190.9C698.6 192.1 697.6 193 696.5 193H685.8C684.6 193 683.7 192 683.7 190.9C683.7 189.7 684.7 188.8 685.8 188.8H696.5C697.6 188.8 698.6 189.7 698.6 190.9Z" fill="#F9E4A7"/>
<path d="M672.3 74.8999V274.3L668 276.7V78.5999L672.3 74.8999Z" fill="#561B1C"/>
<path d="M282.8 263.2L227 261.3V217.7L282.8 213.7V263.2Z" fill="#E5A31F"/>
<path d="M282.8 263.2L338.6 261.3V217.5L282.8 213.7V263.2Z" fill="#FBCC34"/>
<path d="M227 217.5L282.8 214.7L338.6 218.2L276.8 210.6L227 217.5Z" fill="#561B1C"/>
<path d="M282.8 214.7L297.9 232.9H338.4V217.5L282.8 214.7Z" fill="#F0B630"/>
<path d="M227 217.5L212.5 234.3L226.8 233.2L227 217.5Z" fill="#561B1C"/>
<path d="M411.2 161.3V98.2002L430.4 99.5002L435.7 137.8L441 100.3L460.4 101.7V162.9L448.9 162.5V118L441.6 162.2L430.3 161.8L422.6 116.4V161.5L411.2 161.3Z" fill="#561B1C"/>
<path d="M469.4 159.2C466.8 156.1 465.4 151.8 465.4 146.4V117.3C465.4 112 466.7 108.2 469.4 105.7C472 103.2 475.9 102.2 481 102.5C486.1 102.9 490 104.4 492.6 107.3C495.2 110.1 496.6 114.1 496.6 119.2V147.7C496.6 153.1 495.3 157.2 492.6 160C490 162.8 486.1 164.2 481 164C475.9 163.9 472.1 162.3 469.4 159.2ZM483.3 151.6C483.7 150.7 483.9 149.4 483.9 147.7V118.2C483.9 116.9 483.7 115.8 483.3 115C482.9 114.2 482.2 113.7 481.1 113.6C479 113.5 477.9 114.9 477.9 118V147.5C477.9 149.2 478.1 150.6 478.6 151.5C479 152.4 479.8 152.9 481 152.9C482.1 153 482.9 152.6 483.3 151.6Z" fill="#561B1C"/>
<path d="M507.5 164.3L499.7 104.3L511.7 105.1L516.3 145.7L520.4 105.7L532.4 106.5L524.6 164.8L507.5 164.3Z" fill="#561B1C"/>
<path d="M535.5 165.2V106.8L547.7 107.7V165.6L535.5 165.2Z" fill="#561B1C"/>
<path d="M552.8 165.8V108.1L565.8 109L571.6 136.7V109.4L583.8 110.3V166.8L571.5 166.4L565.2 137.5V166.2L552.8 165.8Z" fill="#561B1C"/>
<path d="M592.2 163.3C590 160.4 588.9 156 588.9 150.2V125.9C588.9 120.7 590.2 116.8 592.8 114.4C595.4 111.9 599.3 110.9 604.4 111.2C608.6 111.5 611.8 112.5 614.1 114.1C616.4 115.7 618 117.9 618.9 120.8C619.8 123.6 620.2 127.2 620.2 131.6L607.9 130.9V125.9C607.9 124.6 607.7 123.5 607.3 122.8C606.9 122.1 606.1 121.6 605.1 121.6C602.7 121.4 601.5 122.8 601.5 125.5V152.6C601.5 154.3 601.7 155.6 602.2 156.5C602.7 157.4 603.5 157.9 604.8 157.9C606 157.9 606.9 157.5 607.4 156.7C607.9 155.9 608.1 154.6 608.1 152.9V144.9L604.7 144.7V135L620.1 135.8V168L615 167.8L612.9 163.1C610.6 166.5 607.2 168.1 602.5 167.9C597.8 167.8 594.4 166.2 592.2 163.3Z" fill="#561B1C"/>
<path d="M721.4 189.8C721.4 194.1 717.9 197.6 713.6 197.6C709.3 197.6 705.8 194.1 705.8 189.8V175.6C705.8 171.3 709.3 167.8 713.6 167.8C717.9 167.8 721.4 171.3 721.4 175.6V189.8Z" fill="#FBCC34"/>
<path d="M719.5 190C719.5 193.6 716.5 196.6 712.9 196.6C709.3 196.6 706.3 193.6 706.3 190V178C706.3 174.4 709.3 171.4 712.9 171.4C716.5 171.4 719.5 174.4 719.5 178V190Z" fill="#F9E4A7"/>
<path d="M779.75 277V75.0469H835.287C849.822 75.0469 860.761 79.1012 868.105 87.21C875.448 95.2422 879.12 107.023 879.12 122.552V217.103C879.12 236.227 875.754 250.991 869.023 261.395C862.367 271.798 850.663 277 833.91 277H779.75ZM820.37 241.314H827.37C834.79 241.314 838.5 237.719 838.5 230.528V126.338C838.5 119.607 837.582 115.285 835.746 113.372C833.987 111.383 830.353 110.389 824.845 110.389H820.37V241.314ZM898.508 277V75.0469H937.522V277H898.508ZM1006.48 278.836C990.338 278.836 977.984 273.978 969.416 264.263C960.925 254.472 956.68 240.358 956.68 221.922V125.994C956.68 108.706 960.887 95.5864 969.302 86.6362C977.793 77.686 990.185 73.2109 1006.48 73.2109C1022.77 73.2109 1035.13 77.686 1043.54 86.6362C1052.03 95.5864 1056.28 108.706 1056.28 125.994V221.922C1056.28 240.358 1052 254.472 1043.43 264.263C1034.94 273.978 1022.62 278.836 1006.48 278.836ZM1006.82 241.658C1012.94 241.658 1016 235.73 1016 223.873V125.306C1016 115.361 1013.02 110.389 1007.05 110.389C1000.32 110.389 996.955 115.476 996.955 125.65V224.102C996.955 230.375 997.72 234.888 999.25 237.642C1000.78 240.319 1003.3 241.658 1006.82 241.658ZM1077.27 277V75.0469H1139.24C1149.56 75.0469 1157.37 77.4183 1162.64 82.1611C1167.92 86.8275 1171.44 93.4062 1173.2 101.897C1175.04 110.312 1175.95 120.219 1175.95 131.617C1175.95 142.632 1174.54 151.43 1171.71 158.008C1168.96 164.587 1163.72 169.139 1155.99 171.663C1162.34 172.964 1166.78 176.138 1169.3 181.187C1171.9 186.159 1173.2 192.623 1173.2 200.579V277H1133.38V197.94C1133.38 192.05 1132.16 188.416 1129.71 187.039C1127.34 185.586 1123.48 184.859 1118.12 184.859V277H1077.27ZM1118.35 149.861H1128.11C1133.69 149.861 1136.48 143.78 1136.48 131.617C1136.48 123.737 1135.87 118.574 1134.65 116.126C1133.42 113.678 1131.13 112.454 1127.76 112.454H1118.35V149.861Z" fill="#561B1C"/>
<path d="M780.942 404V287.984H816.274L826.03 358.714L835.719 287.984H871.381V404H850.156V320.416L836.84 404H816.01L801.904 320.416V404H780.942ZM908 405.055C898.727 405.055 891.63 402.264 886.708 396.683C881.83 391.058 879.391 382.95 879.391 372.359V317.252C879.391 307.32 881.808 299.784 886.642 294.642C891.52 289.5 898.64 286.93 908 286.93C917.36 286.93 924.457 289.5 929.291 294.642C934.169 299.784 936.608 307.32 936.608 317.252V372.359C936.608 382.95 934.147 391.058 929.225 396.683C924.348 402.264 917.272 405.055 908 405.055ZM908.198 383.697C911.713 383.697 913.471 380.292 913.471 373.48V316.856C913.471 311.144 911.757 308.287 908.329 308.287C904.462 308.287 902.529 311.209 902.529 317.054V373.612C902.529 377.215 902.968 379.808 903.847 381.39C904.726 382.928 906.176 383.697 908.198 383.697ZM955.297 404L940.993 287.918H963.076L971.579 366.888L979.16 287.918H1001.24L986.938 404H955.297ZM1006.68 404V287.984H1053.09V310.396H1030.28V333.006H1052.17V354.825H1030.28V381.39H1054.6V404H1006.68ZM1060.97 404V287.984H1096.56C1102.49 287.984 1106.98 289.347 1110.01 292.071C1113.04 294.752 1115.06 298.531 1116.07 303.409C1117.13 308.243 1117.66 313.934 1117.66 320.482C1117.66 326.81 1116.84 331.864 1115.22 335.643C1113.63 339.422 1110.62 342.037 1106.19 343.487C1109.83 344.234 1112.38 346.058 1113.83 348.958C1115.33 351.815 1116.07 355.528 1116.07 360.099V404H1093.2V358.583C1093.2 355.199 1092.5 353.111 1091.09 352.32C1089.73 351.485 1087.51 351.068 1084.43 351.068V404H1060.97ZM1084.57 330.963H1090.17C1093.38 330.963 1094.98 327.469 1094.98 320.482C1094.98 315.956 1094.63 312.989 1093.93 311.583C1093.22 310.177 1091.9 309.474 1089.97 309.474H1084.57V330.963ZM1151.51 405.055C1140.92 405.055 1133.27 402.418 1128.57 397.145C1123.91 391.871 1121.58 383.478 1121.58 371.964V360.626H1144.52V375.128C1144.52 377.809 1144.91 379.918 1145.71 381.456C1146.54 382.95 1147.97 383.697 1149.99 383.697C1152.1 383.697 1153.55 383.082 1154.34 381.852C1155.18 380.621 1155.59 378.6 1155.59 375.787C1155.59 372.228 1155.24 369.261 1154.54 366.888C1153.84 364.471 1152.6 362.186 1150.85 360.033C1149.13 357.835 1146.74 355.287 1143.66 352.386L1133.25 342.499C1125.47 335.16 1121.58 326.766 1121.58 317.318C1121.58 307.43 1123.86 299.894 1128.43 294.708C1133.05 289.522 1139.71 286.93 1148.41 286.93C1159.04 286.93 1166.58 289.764 1171.02 295.433C1175.5 301.102 1177.74 309.715 1177.74 321.273H1154.14V313.297C1154.14 311.715 1153.68 310.484 1152.76 309.605C1151.88 308.727 1150.67 308.287 1149.13 308.287C1147.29 308.287 1145.93 308.814 1145.05 309.869C1144.21 310.88 1143.79 312.198 1143.79 313.824C1143.79 315.45 1144.23 317.208 1145.11 319.098C1145.99 320.987 1147.73 323.163 1150.32 325.624L1163.7 338.478C1166.38 341.026 1168.84 343.729 1171.08 346.585C1173.32 349.398 1175.13 352.694 1176.49 356.473C1177.85 360.208 1178.53 364.779 1178.53 370.184C1178.53 381.083 1176.51 389.63 1172.47 395.826C1168.47 401.979 1161.48 405.055 1151.51 405.055Z" fill="#561B1C"/>
</svg>
